<mxfile host="app.diagrams.net" modified="2024-07-22T04:03:48.646Z" agent="Mozilla/5.0 (Windows NT 10.0; Win64; x64) AppleWebKit/537.36 (KHTML, like Gecko) Chrome/126.0.0.0 Safari/537.36" etag="CMWnxaKXyxNuUlz1kZ1s" version="24.7.1" type="device">
  <diagram name="PÃ¡gina-1" id="WEkHryqc7hSB6koSXavV">
    <mxGraphModel dx="2049" dy="1054" grid="1" gridSize="10" guides="1" tooltips="1" connect="1" arrows="1" fold="1" page="1" pageScale="1" pageWidth="2339" pageHeight="3300" background="none" math="0" shadow="0">
      <root>
        <mxCell id="0" />
        <mxCell id="1" parent="0" />
        <mxCell id="ZwB6pHJ-7XClWAAH_lKf-3" value="" style="edgeStyle=orthogonalEdgeStyle;rounded=0;orthogonalLoop=1;jettySize=auto;html=1;" parent="1" source="ZwB6pHJ-7XClWAAH_lKf-1" target="ZwB6pHJ-7XClWAAH_lKf-2" edge="1">
          <mxGeometry relative="1" as="geometry" />
        </mxCell>
        <mxCell id="ZwB6pHJ-7XClWAAH_lKf-1" value="Inicio" style="rounded=0;whiteSpace=wrap;html=1;" parent="1" vertex="1">
          <mxGeometry x="1094" y="40" width="120" height="60" as="geometry" />
        </mxCell>
        <mxCell id="ZwB6pHJ-7XClWAAH_lKf-6" value="" style="edgeStyle=orthogonalEdgeStyle;rounded=0;orthogonalLoop=1;jettySize=auto;html=1;" parent="1" source="ZwB6pHJ-7XClWAAH_lKf-2" target="ZwB6pHJ-7XClWAAH_lKf-5" edge="1">
          <mxGeometry relative="1" as="geometry" />
        </mxCell>
        <mxCell id="ZwB6pHJ-7XClWAAH_lKf-2" value="Se lee surfaceN para dibujar el numero de puntos utilizados para la superficie de marte" style="rounded=0;whiteSpace=wrap;html=1;" parent="1" vertex="1">
          <mxGeometry x="1082" y="170" width="144" height="120" as="geometry" />
        </mxCell>
        <mxCell id="ZwB6pHJ-7XClWAAH_lKf-21" value="" style="edgeStyle=orthogonalEdgeStyle;rounded=0;orthogonalLoop=1;jettySize=auto;html=1;" parent="1" source="ZwB6pHJ-7XClWAAH_lKf-5" target="ZwB6pHJ-7XClWAAH_lKf-20" edge="1">
          <mxGeometry relative="1" as="geometry" />
        </mxCell>
        <mxCell id="ZwB6pHJ-7XClWAAH_lKf-5" value="Se lee el bucle&amp;nbsp; desde i=0 hasta i&amp;lt;surfaceN&amp;nbsp;" style="rounded=0;whiteSpace=wrap;html=1;" parent="1" vertex="1">
          <mxGeometry x="1082" y="370" width="144" height="120" as="geometry" />
        </mxCell>
        <mxCell id="ZwB6pHJ-7XClWAAH_lKf-30" value="" style="edgeStyle=orthogonalEdgeStyle;rounded=0;orthogonalLoop=1;jettySize=auto;html=1;" parent="1" source="ZwB6pHJ-7XClWAAH_lKf-15" target="ZwB6pHJ-7XClWAAH_lKf-29" edge="1">
          <mxGeometry relative="1" as="geometry" />
        </mxCell>
        <mxCell id="ZwB6pHJ-7XClWAAH_lKf-15" value="Si, se leen los inputs y se continua." style="whiteSpace=wrap;html=1;rounded=0;" parent="1" vertex="1">
          <mxGeometry x="1076" y="1050" width="156" height="140" as="geometry" />
        </mxCell>
        <mxCell id="ZwB6pHJ-7XClWAAH_lKf-27" style="edgeStyle=orthogonalEdgeStyle;rounded=0;orthogonalLoop=1;jettySize=auto;html=1;entryX=0;entryY=0.25;entryDx=0;entryDy=0;" parent="1" source="ZwB6pHJ-7XClWAAH_lKf-17" target="ZwB6pHJ-7XClWAAH_lKf-20" edge="1">
          <mxGeometry relative="1" as="geometry">
            <Array as="points">
              <mxPoint x="830" y="600" />
            </Array>
          </mxGeometry>
        </mxCell>
        <mxCell id="ZwB6pHJ-7XClWAAH_lKf-17" value="No,&amp;nbsp; no se han agregado correctamente" style="whiteSpace=wrap;html=1;rounded=0;" parent="1" vertex="1">
          <mxGeometry x="770" y="847.5" width="120" height="75" as="geometry" />
        </mxCell>
        <mxCell id="ZwB6pHJ-7XClWAAH_lKf-23" value="" style="edgeStyle=orthogonalEdgeStyle;rounded=0;orthogonalLoop=1;jettySize=auto;html=1;" parent="1" source="ZwB6pHJ-7XClWAAH_lKf-20" target="ZwB6pHJ-7XClWAAH_lKf-22" edge="1">
          <mxGeometry relative="1" as="geometry" />
        </mxCell>
        <mxCell id="ZwB6pHJ-7XClWAAH_lKf-20" value="Se agregan los inputs." style="rounded=0;whiteSpace=wrap;html=1;" parent="1" vertex="1">
          <mxGeometry x="1082" y="570" width="144" height="120" as="geometry" />
        </mxCell>
        <mxCell id="ZwB6pHJ-7XClWAAH_lKf-24" style="edgeStyle=orthogonalEdgeStyle;rounded=0;orthogonalLoop=1;jettySize=auto;html=1;entryX=1;entryY=0.5;entryDx=0;entryDy=0;" parent="1" source="ZwB6pHJ-7XClWAAH_lKf-22" target="ZwB6pHJ-7XClWAAH_lKf-17" edge="1">
          <mxGeometry relative="1" as="geometry" />
        </mxCell>
        <mxCell id="ZwB6pHJ-7XClWAAH_lKf-28" style="edgeStyle=orthogonalEdgeStyle;rounded=0;orthogonalLoop=1;jettySize=auto;html=1;exitX=0.5;exitY=1;exitDx=0;exitDy=0;" parent="1" source="ZwB6pHJ-7XClWAAH_lKf-22" target="ZwB6pHJ-7XClWAAH_lKf-15" edge="1">
          <mxGeometry relative="1" as="geometry" />
        </mxCell>
        <mxCell id="ZwB6pHJ-7XClWAAH_lKf-22" value="Se han agregado los inputs correctamente&amp;gt;" style="rhombus;whiteSpace=wrap;html=1;rounded=0;" parent="1" vertex="1">
          <mxGeometry x="1018" y="800" width="271" height="170" as="geometry" />
        </mxCell>
        <mxCell id="ZwB6pHJ-7XClWAAH_lKf-32" value="" style="edgeStyle=orthogonalEdgeStyle;rounded=0;orthogonalLoop=1;jettySize=auto;html=1;" parent="1" source="ZwB6pHJ-7XClWAAH_lKf-29" target="ZwB6pHJ-7XClWAAH_lKf-31" edge="1">
          <mxGeometry relative="1" as="geometry" />
        </mxCell>
        <mxCell id="ZwB6pHJ-7XClWAAH_lKf-29" value="&lt;div&gt;Se dividen los inputs en&lt;/div&gt;&lt;div&gt;landX y landY&lt;/div&gt;" style="whiteSpace=wrap;html=1;rounded=0;" parent="1" vertex="1">
          <mxGeometry x="1076" y="1270" width="156" height="80" as="geometry" />
        </mxCell>
        <mxCell id="ZwB6pHJ-7XClWAAH_lKf-34" value="" style="edgeStyle=orthogonalEdgeStyle;rounded=0;orthogonalLoop=1;jettySize=auto;html=1;" parent="1" source="ZwB6pHJ-7XClWAAH_lKf-31" target="ZwB6pHJ-7XClWAAH_lKf-33" edge="1">
          <mxGeometry relative="1" as="geometry" />
        </mxCell>
        <mxCell id="ZwB6pHJ-7XClWAAH_lKf-31" value="&lt;div&gt;Se finaliza el bucle.&lt;/div&gt;" style="whiteSpace=wrap;html=1;rounded=0;" parent="1" vertex="1">
          <mxGeometry x="1076" y="1430" width="156" height="80" as="geometry" />
        </mxCell>
        <mxCell id="ZwB6pHJ-7XClWAAH_lKf-36" value="" style="edgeStyle=orthogonalEdgeStyle;rounded=0;orthogonalLoop=1;jettySize=auto;html=1;" parent="1" source="ZwB6pHJ-7XClWAAH_lKf-33" target="ZwB6pHJ-7XClWAAH_lKf-35" edge="1">
          <mxGeometry relative="1" as="geometry" />
        </mxCell>
        <mxCell id="ZwB6pHJ-7XClWAAH_lKf-33" value="&lt;div&gt;Se inicia el bucle del juego&lt;/div&gt;" style="whiteSpace=wrap;html=1;rounded=0;" parent="1" vertex="1">
          <mxGeometry x="1076" y="1590" width="156" height="80" as="geometry" />
        </mxCell>
        <mxCell id="ZwB6pHJ-7XClWAAH_lKf-38" value="" style="edgeStyle=orthogonalEdgeStyle;rounded=0;orthogonalLoop=1;jettySize=auto;html=1;" parent="1" source="ZwB6pHJ-7XClWAAH_lKf-35" target="ZwB6pHJ-7XClWAAH_lKf-37" edge="1">
          <mxGeometry relative="1" as="geometry" />
        </mxCell>
        <mxCell id="ZwB6pHJ-7XClWAAH_lKf-35" value="&lt;div&gt;Se vuelven a leer los inputs&lt;/div&gt;" style="whiteSpace=wrap;html=1;rounded=0;" parent="1" vertex="1">
          <mxGeometry x="1076" y="1750" width="156" height="80" as="geometry" />
        </mxCell>
        <mxCell id="ZwB6pHJ-7XClWAAH_lKf-40" value="" style="edgeStyle=orthogonalEdgeStyle;rounded=0;orthogonalLoop=1;jettySize=auto;html=1;" parent="1" source="ZwB6pHJ-7XClWAAH_lKf-37" target="ZwB6pHJ-7XClWAAH_lKf-39" edge="1">
          <mxGeometry relative="1" as="geometry" />
        </mxCell>
        <mxCell id="ZwB6pHJ-7XClWAAH_lKf-37" value="&lt;div&gt;Dividir inputs en x, y,&amp;nbsp; &amp;nbsp; &amp;nbsp;&lt;/div&gt;&lt;div&gt;hSpeed, vSpeed, fuel,&amp;nbsp; &amp;nbsp; &amp;nbsp; &amp;nbsp;&lt;/div&gt;&lt;div&gt;rotate, power&lt;/div&gt;" style="whiteSpace=wrap;html=1;rounded=0;" parent="1" vertex="1">
          <mxGeometry x="1076" y="1870" width="156" height="120" as="geometry" />
        </mxCell>
        <mxCell id="ZwB6pHJ-7XClWAAH_lKf-42" value="" style="edgeStyle=orthogonalEdgeStyle;rounded=0;orthogonalLoop=1;jettySize=auto;html=1;" parent="1" source="ZwB6pHJ-7XClWAAH_lKf-39" target="ZwB6pHJ-7XClWAAH_lKf-41" edge="1">
          <mxGeometry relative="1" as="geometry" />
        </mxCell>
        <mxCell id="ZwB6pHJ-7XClWAAH_lKf-39" value="&lt;div&gt;&lt;span style=&quot;background-color: initial;&quot;&gt;Si vSpeed &amp;lt;= -40&amp;nbsp; v&amp;nbsp; Imprimir &quot;0 4&quot;&amp;nbsp; Si no vSpeed &amp;gt; -40&amp;nbsp; v&amp;nbsp; Imprimir &quot;0 0&quot;&lt;/span&gt;&lt;span style=&quot;background-color: initial;&quot;&gt;&amp;nbsp; &amp;nbsp;&lt;/span&gt;&lt;br&gt;&lt;/div&gt;" style="whiteSpace=wrap;html=1;rounded=0;" parent="1" vertex="1">
          <mxGeometry x="1076" y="2080" width="156" height="130" as="geometry" />
        </mxCell>
        <mxCell id="ZwB6pHJ-7XClWAAH_lKf-44" value="" style="edgeStyle=orthogonalEdgeStyle;rounded=0;orthogonalLoop=1;jettySize=auto;html=1;" parent="1" source="ZwB6pHJ-7XClWAAH_lKf-41" target="ZwB6pHJ-7XClWAAH_lKf-43" edge="1">
          <mxGeometry relative="1" as="geometry" />
        </mxCell>
        <mxCell id="ZwB6pHJ-7XClWAAH_lKf-50" value="" style="edgeStyle=orthogonalEdgeStyle;rounded=0;orthogonalLoop=1;jettySize=auto;html=1;" parent="1" source="ZwB6pHJ-7XClWAAH_lKf-41" target="ZwB6pHJ-7XClWAAH_lKf-49" edge="1">
          <mxGeometry relative="1" as="geometry" />
        </mxCell>
        <mxCell id="ZwB6pHJ-7XClWAAH_lKf-41" value="Es&amp;nbsp;Si vSpeed &amp;lt;= -40&amp;nbsp; v&amp;nbsp; ?" style="rhombus;whiteSpace=wrap;html=1;rounded=0;" parent="1" vertex="1">
          <mxGeometry x="1029" y="2310" width="250" height="175" as="geometry" />
        </mxCell>
        <mxCell id="ZwB6pHJ-7XClWAAH_lKf-46" value="" style="edgeStyle=orthogonalEdgeStyle;rounded=0;orthogonalLoop=1;jettySize=auto;html=1;" parent="1" source="ZwB6pHJ-7XClWAAH_lKf-43" target="ZwB6pHJ-7XClWAAH_lKf-45" edge="1">
          <mxGeometry relative="1" as="geometry" />
        </mxCell>
        <mxCell id="ZwB6pHJ-7XClWAAH_lKf-43" value="Si, entonces se imprime&amp;nbsp; &quot;0 4&quot;" style="whiteSpace=wrap;html=1;rounded=0;" parent="1" vertex="1">
          <mxGeometry x="1039" y="2560" width="230" height="122.5" as="geometry" />
        </mxCell>
        <mxCell id="ZwB6pHJ-7XClWAAH_lKf-48" value="" style="edgeStyle=orthogonalEdgeStyle;rounded=0;orthogonalLoop=1;jettySize=auto;html=1;" parent="1" source="ZwB6pHJ-7XClWAAH_lKf-45" edge="1">
          <mxGeometry relative="1" as="geometry">
            <mxPoint x="1154" y="2965" as="targetPoint" />
          </mxGeometry>
        </mxCell>
        <mxCell id="ZwB6pHJ-7XClWAAH_lKf-45" value="Se repite el bucle." style="whiteSpace=wrap;html=1;rounded=0;" parent="1" vertex="1">
          <mxGeometry x="1039" y="2762.5" width="230" height="122.5" as="geometry" />
        </mxCell>
        <mxCell id="ZwB6pHJ-7XClWAAH_lKf-47" value="Fin" style="whiteSpace=wrap;html=1;rounded=0;" parent="1" vertex="1">
          <mxGeometry x="1039" y="2970" width="230" height="122.5" as="geometry" />
        </mxCell>
        <mxCell id="ZwB6pHJ-7XClWAAH_lKf-52" style="edgeStyle=orthogonalEdgeStyle;rounded=0;orthogonalLoop=1;jettySize=auto;html=1;exitX=0.5;exitY=0;exitDx=0;exitDy=0;entryX=0;entryY=0.5;entryDx=0;entryDy=0;" parent="1" source="ZwB6pHJ-7XClWAAH_lKf-49" target="ZwB6pHJ-7XClWAAH_lKf-39" edge="1">
          <mxGeometry relative="1" as="geometry" />
        </mxCell>
        <mxCell id="ZwB6pHJ-7XClWAAH_lKf-49" value="No, entonces decimos&amp;nbsp;no vSpeed &amp;gt; -40&amp;nbsp; v&amp;nbsp; Imprimir &quot;0 0&quot;" style="whiteSpace=wrap;html=1;rounded=0;" parent="1" vertex="1">
          <mxGeometry x="770" y="2338.75" width="164" height="117.5" as="geometry" />
        </mxCell>
      </root>
    </mxGraphModel>
  </diagram>
</mxfile>
